<svg width="144" height="23" viewBox="0 0 144 23" fill="none" xmlns="http://www.w3.org/2000/svg">
<path d="M0.848 18V1.248H11.96V4.488H4.496V7.92H10.856V11.136H4.496V18H0.848ZM16.4711 4.056C15.7511 4.056 15.2231 3.896 14.8871 3.576C14.5671 3.24 14.4071 2.816 14.4071 2.304V1.776C14.4071 1.264 14.5671 0.848 14.8871 0.527999C15.2231 0.191999 15.7511 0.0239997 16.4711 0.0239997C17.1911 0.0239997 17.7111 0.191999 18.0311 0.527999C18.3671 0.848 18.5351 1.264 18.5351 1.776V2.304C18.5351 2.816 18.3671 3.24 18.0311 3.576C17.7111 3.896 17.1911 4.056 16.4711 4.056ZM14.6951 5.4H18.2471V18H14.6951V5.4ZM21.5623 18V5.4H25.1143V7.536H25.2583C25.4823 6.88 25.8743 6.312 26.4343 5.832C26.9943 5.352 27.7703 5.112 28.7623 5.112C30.0583 5.112 31.0343 5.544 31.6903 6.408C32.3623 7.272 32.6983 8.504 32.6983 10.104V18H29.1463V10.392C29.1463 9.576 29.0183 8.976 28.7623 8.592C28.5063 8.192 28.0503 7.992 27.3943 7.992C27.1063 7.992 26.8263 8.032 26.5543 8.112C26.2823 8.176 26.0343 8.288 25.8103 8.448C25.6023 8.608 25.4343 8.808 25.3063 9.048C25.1783 9.272 25.1143 9.536 25.1143 9.84V18H21.5623ZM45.1711 18C44.5311 18 43.9951 17.8 43.5631 17.4C43.1471 17 42.8831 16.464 42.7711 15.792H42.6271C42.4351 16.608 42.0111 17.232 41.3551 17.664C40.6991 18.08 39.8911 18.288 38.9311 18.288C37.6671 18.288 36.6991 17.952 36.0271 17.28C35.3551 16.608 35.0191 15.72 35.0191 14.616C35.0191 13.288 35.4991 12.304 36.4591 11.664C37.4351 11.008 38.7551 10.68 40.4191 10.68H42.4111V9.888C42.4111 9.28 42.2511 8.8 41.9311 8.448C41.6111 8.08 41.0751 7.896 40.3231 7.896C39.6191 7.896 39.0591 8.048 38.6431 8.352C38.2271 8.656 37.8831 9 37.6111 9.384L35.4991 7.512C36.0111 6.76 36.6511 6.176 37.4191 5.76C38.2031 5.328 39.2591 5.112 40.5871 5.112C42.3791 5.112 43.7231 5.504 44.6191 6.288C45.5151 7.072 45.9631 8.216 45.9631 9.72V15.24H47.1391V18H45.1711ZM40.2511 15.816C40.8431 15.816 41.3471 15.688 41.7631 15.432C42.1951 15.176 42.4111 14.76 42.4111 14.184V12.696H40.6831C39.2911 12.696 38.5951 13.168 38.5951 14.112V14.472C38.5951 14.936 38.7391 15.28 39.0271 15.504C39.3151 15.712 39.7231 15.816 40.2511 15.816ZM53.0512 18C51.8352 18 50.9392 17.704 50.3632 17.112C49.8032 16.52 49.5232 15.664 49.5232 14.544V0.24H53.0752V15.24H54.6592V18H53.0512ZM60.1293 18C58.9133 18 58.0173 17.704 57.4413 17.112C56.8813 16.52 56.6013 15.664 56.6013 14.544V0.24H60.1533V15.24H61.7373V18H60.1293ZM71.4303 5.4H74.7423L69.8943 19.944C69.5743 20.92 69.1183 21.64 68.5263 22.104C67.9503 22.568 67.1183 22.8 66.0303 22.8H63.8223V20.04H66.1983L66.6303 18.648L62.2143 5.4H65.7423L67.5903 11.28L68.5023 14.928H68.6463L69.5823 11.28L71.4303 5.4ZM76.7386 18V1.248H87.8506V4.488H80.3866V7.92H86.7466V11.136H80.3866V18H76.7386ZM94.9243 18.288C93.9963 18.288 93.1643 18.136 92.4283 17.832C91.7083 17.528 91.0923 17.088 90.5803 16.512C90.0843 15.936 89.7003 15.24 89.4283 14.424C89.1563 13.608 89.0203 12.696 89.0203 11.688C89.0203 10.68 89.1563 9.768 89.4283 8.952C89.7003 8.136 90.0843 7.448 90.5803 6.888C91.0923 6.312 91.7083 5.872 92.4283 5.568C93.1643 5.264 93.9963 5.112 94.9243 5.112C95.8523 5.112 96.6763 5.264 97.3963 5.568C98.1323 5.872 98.7483 6.312 99.2443 6.888C99.7563 7.448 100.148 8.136 100.42 8.952C100.692 9.768 100.828 10.68 100.828 11.688C100.828 12.696 100.692 13.608 100.42 14.424C100.148 15.24 99.7563 15.936 99.2443 16.512C98.7483 17.088 98.1323 17.528 97.3963 17.832C96.6763 18.136 95.8523 18.288 94.9243 18.288ZM94.9243 15.48C95.6283 15.48 96.1723 15.264 96.5563 14.832C96.9403 14.4 97.1323 13.784 97.1323 12.984V10.416C97.1323 9.616 96.9403 9 96.5563 8.568C96.1723 8.136 95.6283 7.92 94.9243 7.92C94.2203 7.92 93.6763 8.136 93.2923 8.568C92.9083 9 92.7163 9.616 92.7163 10.416V12.984C92.7163 13.784 92.9083 14.4 93.2923 14.832C93.6763 15.264 94.2203 15.48 94.9243 15.48ZM110.799 15.888H110.679C110.567 16.208 110.415 16.512 110.223 16.8C110.047 17.088 109.815 17.344 109.527 17.568C109.239 17.792 108.895 17.968 108.495 18.096C108.111 18.224 107.663 18.288 107.151 18.288C105.855 18.288 104.871 17.864 104.199 17.016C103.543 16.152 103.215 14.92 103.215 13.32V5.4H106.767V13.008C106.767 13.776 106.903 14.368 107.175 14.784C107.447 15.2 107.911 15.408 108.567 15.408C108.839 15.408 109.111 15.368 109.383 15.288C109.655 15.208 109.895 15.096 110.103 14.952C110.311 14.792 110.479 14.6 110.607 14.376C110.735 14.152 110.799 13.888 110.799 13.584V5.4H114.351V18H110.799V15.888ZM117.656 18V5.4H121.208V7.536H121.352C121.576 6.88 121.968 6.312 122.528 5.832C123.088 5.352 123.864 5.112 124.856 5.112C126.152 5.112 127.128 5.544 127.784 6.408C128.456 7.272 128.792 8.504 128.792 10.104V18H125.24V10.392C125.24 9.576 125.112 8.976 124.856 8.592C124.6 8.192 124.144 7.992 123.488 7.992C123.2 7.992 122.92 8.032 122.648 8.112C122.376 8.176 122.128 8.288 121.904 8.448C121.696 8.608 121.528 8.808 121.4 9.048C121.272 9.272 121.208 9.536 121.208 9.84V18H117.656ZM139.681 15.888H139.561C139.465 16.224 139.313 16.544 139.105 16.848C138.897 17.136 138.641 17.392 138.337 17.616C138.049 17.824 137.713 17.984 137.329 18.096C136.961 18.224 136.577 18.288 136.177 18.288C134.577 18.288 133.369 17.728 132.553 16.608C131.737 15.472 131.329 13.832 131.329 11.688C131.329 9.544 131.737 7.912 132.553 6.792C133.369 5.672 134.577 5.112 136.177 5.112C136.993 5.112 137.713 5.336 138.337 5.784C138.977 6.232 139.385 6.808 139.561 7.512H139.681V0.24H143.233V18H139.681V15.888ZM137.353 15.408C138.025 15.408 138.577 15.248 139.009 14.928C139.457 14.592 139.681 14.136 139.681 13.56V9.84C139.681 9.264 139.457 8.816 139.009 8.496C138.577 8.16 138.025 7.992 137.353 7.992C136.681 7.992 136.121 8.232 135.673 8.712C135.241 9.176 135.025 9.808 135.025 10.608V12.792C135.025 13.592 135.241 14.232 135.673 14.712C136.121 15.176 136.681 15.408 137.353 15.408Z" fill="white"/>
</svg>
